<svg width="133" height="48" viewBox="0 0 133 48" fill="none" xmlns="http://www.w3.org/2000/svg">
<path d="M7.45631 17.936H23.6323V23.984H7.45631V17.936ZM8.03231 31.76H26.3203V38H0.304313V4.4H25.6963V10.64H8.03231V31.76ZM30.0594 47.696C28.9074 47.696 27.8034 47.568 26.7474 47.312C25.6914 47.088 24.7954 46.736 24.0594 46.256L26.0754 40.832C26.9394 41.44 27.9954 41.744 29.2434 41.744C30.1714 41.744 30.9074 41.424 31.4514 40.784C32.0274 40.176 32.3154 39.248 32.3154 38V12.176H39.8034V37.952C39.8034 40.928 38.9554 43.296 37.2594 45.056C35.5634 46.816 33.1634 47.696 30.0594 47.696ZM36.0594 8.576C34.6834 8.576 33.5634 8.176 32.6994 7.376C31.8354 6.576 31.4034 5.584 31.4034 4.4C31.4034 3.216 31.8354 2.224 32.6994 1.424C33.5634 0.623998 34.6834 0.223997 36.0594 0.223997C37.4354 0.223997 38.5554 0.607998 39.4194 1.376C40.2834 2.112 40.7154 3.072 40.7154 4.256C40.7154 5.504 40.2834 6.544 39.4194 7.376C38.5874 8.176 37.4674 8.576 36.0594 8.576ZM62.5382 38V32.96L62.0582 31.856V22.832C62.0582 21.232 61.5622 19.984 60.5702 19.088C59.6102 18.192 58.1222 17.744 56.1062 17.744C54.7302 17.744 53.3702 17.968 52.0262 18.416C50.7142 18.832 49.5942 19.408 48.6662 20.144L45.9782 14.912C47.3862 13.92 49.0822 13.152 51.0662 12.608C53.0502 12.064 55.0662 11.792 57.1142 11.792C61.0502 11.792 64.1062 12.72 66.2822 14.576C68.4582 16.432 69.5462 19.328 69.5462 23.264V38H62.5382ZM54.6662 38.384C52.6502 38.384 50.9222 38.048 49.4822 37.376C48.0422 36.672 46.9382 35.728 46.1702 34.544C45.4022 33.36 45.0182 32.032 45.0182 30.56C45.0182 29.024 45.3862 27.68 46.1222 26.528C46.8902 25.376 48.0902 24.48 49.7222 23.84C51.3542 23.168 53.4822 22.832 56.1062 22.832H62.9702V27.2H56.9222C55.1622 27.2 53.9462 27.488 53.2742 28.064C52.6342 28.64 52.3142 29.36 52.3142 30.224C52.3142 31.184 52.6822 31.952 53.4182 32.528C54.1862 33.072 55.2262 33.344 56.5382 33.344C57.7862 33.344 58.9062 33.056 59.8982 32.48C60.8902 31.872 61.6102 30.992 62.0582 29.84L63.2102 33.296C62.6662 34.96 61.6742 36.224 60.2342 37.088C58.7942 37.952 56.9382 38.384 54.6662 38.384Z" fill="black"/>
<path d="M92.1632 38V32.96L91.6832 31.856V22.832C91.6832 21.232 91.1872 19.984 90.1952 19.088C89.2352 18.192 87.7472 17.744 85.7312 17.744C84.3552 17.744 82.9952 17.968 81.6512 18.416C80.3392 18.832 79.2192 19.408 78.2912 20.144L75.6032 14.912C77.0112 13.92 78.7072 13.152 80.6912 12.608C82.6752 12.064 84.6912 11.792 86.7392 11.792C90.6752 11.792 93.7312 12.72 95.9072 14.576C98.0832 16.432 99.1712 19.328 99.1712 23.264V38H92.1632ZM84.2912 38.384C82.2752 38.384 80.5472 38.048 79.1072 37.376C77.6672 36.672 76.5632 35.728 75.7952 34.544C75.0272 33.36 74.6432 32.032 74.6432 30.56C74.6432 29.024 75.0112 27.68 75.7472 26.528C76.5152 25.376 77.7152 24.48 79.3472 23.84C80.9792 23.168 83.1072 22.832 85.7312 22.832H92.5952V27.2H86.5472C84.7872 27.2 83.5712 27.488 82.8992 28.064C82.2592 28.64 81.9392 29.36 81.9392 30.224C81.9392 31.184 82.3072 31.952 83.0432 32.528C83.8112 33.072 84.8512 33.344 86.1632 33.344C87.4112 33.344 88.5312 33.056 89.5232 32.48C90.5152 31.872 91.2352 30.992 91.6832 29.84L92.8352 33.296C92.2912 34.96 91.2992 36.224 89.8592 37.088C88.4192 37.952 86.5632 38.384 84.2912 38.384ZM121.644 11.792C123.692 11.792 125.516 12.208 127.116 13.04C128.748 13.84 130.028 15.088 130.956 16.784C131.884 18.448 132.348 20.592 132.348 23.216V38H124.86V24.368C124.86 22.288 124.396 20.752 123.468 19.76C122.572 18.768 121.292 18.272 119.628 18.272C118.444 18.272 117.372 18.528 116.412 19.04C115.484 19.52 114.748 20.272 114.204 21.296C113.692 22.32 113.436 23.632 113.436 25.232V38H105.948V12.176H113.1V19.328L111.756 17.168C112.684 15.44 114.012 14.112 115.74 13.184C117.468 12.256 119.436 11.792 121.644 11.792Z" fill="#008FE0"/>
</svg>
