<svg width="182" height="39" viewBox="0 0 182 39" fill="none" xmlns="http://www.w3.org/2000/svg">
<path d="M7.12369 30.32L6.69169 21.344L22.7717 4.4H31.4117L16.9157 20L12.5957 24.608L7.12369 30.32ZM0.163688 38V4.4H7.89169V38H0.163688ZM23.1557 38L11.2037 23.36L16.2917 17.84L32.2277 38H23.1557ZM46.3768 38.384C43.6248 38.384 41.1768 37.808 39.0328 36.656C36.9208 35.504 35.2408 33.936 33.9928 31.952C32.7768 29.936 32.1688 27.648 32.1688 25.088C32.1688 22.496 32.7768 20.208 33.9928 18.224C35.2408 16.208 36.9208 14.64 39.0328 13.52C41.1768 12.368 43.6248 11.792 46.3768 11.792C49.0968 11.792 51.5288 12.368 53.6728 13.52C55.8168 14.64 57.4968 16.192 58.7128 18.176C59.9288 20.16 60.5368 22.464 60.5368 25.088C60.5368 27.648 59.9288 29.936 58.7128 31.952C57.4968 33.936 55.8168 35.504 53.6728 36.656C51.5288 37.808 49.0968 38.384 46.3768 38.384ZM46.3768 32.24C47.6248 32.24 48.7448 31.952 49.7368 31.376C50.7288 30.8 51.5128 29.984 52.0888 28.928C52.6648 27.84 52.9528 26.56 52.9528 25.088C52.9528 23.584 52.6648 22.304 52.0888 21.248C51.5128 20.192 50.7288 19.376 49.7368 18.8C48.7448 18.224 47.6248 17.936 46.3768 17.936C45.1288 17.936 44.0088 18.224 43.0168 18.8C42.0248 19.376 41.2248 20.192 40.6168 21.248C40.0408 22.304 39.7528 23.584 39.7528 25.088C39.7528 26.56 40.0408 27.84 40.6168 28.928C41.2248 29.984 42.0248 30.8 43.0168 31.376C44.0088 31.952 45.1288 32.24 46.3768 32.24ZM65.5419 38V12.176H72.6939V19.472L71.6859 17.36C72.4539 15.536 73.6859 14.16 75.3819 13.232C77.0779 12.272 79.1419 11.792 81.5739 11.792V18.704C81.2539 18.672 80.9659 18.656 80.7099 18.656C80.4539 18.624 80.1819 18.608 79.8939 18.608C77.8459 18.608 76.1819 19.2 74.9019 20.384C73.6539 21.536 73.0299 23.344 73.0299 25.808V38H65.5419Z" fill="#008FE0"/>
<path d="M99.0298 38.384C96.0858 38.384 93.4938 37.808 91.2538 36.656C89.0458 35.504 87.3338 33.936 86.1178 31.952C84.9018 29.936 84.2938 27.648 84.2938 25.088C84.2938 22.496 84.8858 20.208 86.0698 18.224C87.2858 16.208 88.9338 14.64 91.0138 13.52C93.0938 12.368 95.4458 11.792 98.0698 11.792C100.598 11.792 102.87 12.336 104.886 13.424C106.934 14.48 108.55 16.016 109.734 18.032C110.918 20.016 111.51 22.4 111.51 25.184C111.51 25.472 111.494 25.808 111.462 26.192C111.43 26.544 111.398 26.88 111.366 27.2H90.3898V22.832H107.43L104.55 24.128C104.55 22.784 104.278 21.616 103.734 20.624C103.19 19.632 102.438 18.864 101.478 18.32C100.518 17.744 99.3978 17.456 98.1178 17.456C96.8378 17.456 95.7018 17.744 94.7098 18.32C93.7498 18.864 92.9978 19.648 92.4538 20.672C91.9098 21.664 91.6378 22.848 91.6378 24.224V25.376C91.6378 26.784 91.9418 28.032 92.5498 29.12C93.1898 30.176 94.0698 30.992 95.1898 31.568C96.3418 32.112 97.6858 32.384 99.2218 32.384C100.598 32.384 101.798 32.176 102.822 31.76C103.878 31.344 104.838 30.72 105.702 29.888L109.686 34.208C108.502 35.552 107.014 36.592 105.222 37.328C103.43 38.032 101.366 38.384 99.0298 38.384ZM122.687 32.72L122.879 23.6L134.927 12.176H143.855L132.287 23.936L128.399 27.104L122.687 32.72ZM116.495 38V2.384H123.983V38H116.495ZM135.743 38L127.007 27.152L131.711 21.344L144.815 38H135.743ZM156.027 38.384C153.819 38.384 151.691 38.128 149.643 37.616C147.627 37.072 146.027 36.4 144.843 35.6L147.339 30.224C148.523 30.96 149.915 31.568 151.515 32.048C153.147 32.496 154.747 32.72 156.315 32.72C158.043 32.72 159.259 32.512 159.963 32.096C160.699 31.68 161.067 31.104 161.067 30.368C161.067 29.76 160.779 29.312 160.203 29.024C159.659 28.704 158.923 28.464 157.995 28.304C157.067 28.144 156.043 27.984 154.923 27.824C153.835 27.664 152.731 27.456 151.611 27.2C150.491 26.912 149.467 26.496 148.539 25.952C147.611 25.408 146.859 24.672 146.283 23.744C145.739 22.816 145.467 21.616 145.467 20.144C145.467 18.512 145.931 17.072 146.859 15.824C147.819 14.576 149.195 13.6 150.987 12.896C152.779 12.16 154.923 11.792 157.419 11.792C159.179 11.792 160.971 11.984 162.795 12.368C164.619 12.752 166.139 13.312 167.355 14.048L164.859 19.376C163.611 18.64 162.347 18.144 161.067 17.888C159.819 17.6 158.603 17.456 157.419 17.456C155.755 17.456 154.539 17.68 153.771 18.128C153.003 18.576 152.619 19.152 152.619 19.856C152.619 20.496 152.891 20.976 153.435 21.296C154.011 21.616 154.763 21.872 155.691 22.064C156.619 22.256 157.627 22.432 158.715 22.592C159.835 22.72 160.955 22.928 162.075 23.216C163.195 23.504 164.203 23.92 165.099 24.464C166.027 24.976 166.779 25.696 167.355 26.624C167.931 27.52 168.219 28.704 168.219 30.176C168.219 31.776 167.739 33.2 166.779 34.448C165.819 35.664 164.427 36.624 162.603 37.328C160.811 38.032 158.619 38.384 156.027 38.384ZM172.839 38V12.176H180.327V38H172.839ZM176.583 8.576C175.207 8.576 174.087 8.176 173.223 7.376C172.359 6.576 171.927 5.584 171.927 4.4C171.927 3.216 172.359 2.224 173.223 1.424C174.087 0.623998 175.207 0.223997 176.583 0.223997C177.959 0.223997 179.079 0.607998 179.943 1.376C180.807 2.112 181.239 3.072 181.239 4.256C181.239 5.504 180.807 6.544 179.943 7.376C179.111 8.176 177.991 8.576 176.583 8.576Z" fill="black"/>
</svg>
