<svg width="135" height="29" viewBox="0 0 135 29" fill="none" xmlns="http://www.w3.org/2000/svg">
<path d="M19.6 28H28.8L16.76 12.4L28.2 -1.90735e-06H19.48L8.64 11.64V-1.90735e-06H0.8V28H8.64V21L11.6 17.84L19.6 28ZM40.5388 28.36C47.6988 28.36 52.7788 23.68 52.7788 17.12C52.7788 10.6 47.6988 5.96 40.5388 5.96C33.4588 5.96 28.2988 10.6 28.2988 17.12C28.2988 23.68 33.4588 28.36 40.5388 28.36ZM40.5388 22.32C37.9788 22.32 35.9788 20.44 35.9788 17.12C35.9788 13.84 37.9788 12 40.5388 12C43.1388 12 45.0988 13.84 45.0988 17.12C45.0988 20.44 43.1388 22.32 40.5388 22.32ZM63.5394 8.92V6.32H56.2994V28H63.8994V18.04C63.8994 14.24 66.0194 12.68 69.0994 12.68C69.6594 12.68 70.1394 12.72 70.8194 12.8V5.96C67.6194 5.96 65.0994 6.96 63.5394 8.92Z" fill="black"/>
<path d="M83.2738 5.96C79.8738 5.96 76.1938 6.84 73.7138 8.48L76.2738 13.64C77.7538 12.48 80.0738 11.76 82.1537 11.76C85.1538 11.76 86.6338 13 86.7538 15.2H82.4338C75.7138 15.2 72.7938 17.68 72.7938 21.68C72.7938 25.44 75.6738 28.36 80.8738 28.36C84.0338 28.36 86.1938 27.28 87.2738 25.2V28H94.3538V15.96C94.3538 9.08 90.3138 5.96 83.2738 5.96ZM82.9938 23.56C81.1938 23.56 80.1538 22.64 80.1538 21.36C80.1538 20.04 81.0338 19.16 83.4738 19.16H86.7538V21.04C86.1538 22.76 84.6738 23.56 82.9938 23.56ZM113.271 5.96C110.551 5.96 108.111 6.88 106.391 8.68V6.32H99.1509V28H106.751V17.52C106.751 13.92 108.631 12.4 111.071 12.4C113.271 12.4 114.631 13.72 114.631 16.84V28H122.231V15.6C122.231 8.88 118.351 5.96 113.271 5.96ZM130.203 28.36C132.803 28.36 134.763 26.48 134.763 23.84C134.763 21.12 132.803 19.36 130.203 19.36C127.643 19.36 125.643 21.12 125.643 23.84C125.643 26.48 127.643 28.36 130.203 28.36Z" fill="#008FE0"/>
</svg>
