<svg width="101" height="22" viewBox="0 0 101 22" fill="none" xmlns="http://www.w3.org/2000/svg">
<path d="M14.2 21H21.1L12.07 9.3L20.65 -1.43051e-06H14.11L5.98 8.73V-1.43051e-06H0.1V21H5.98V15.75L8.2 13.38L14.2 21ZM29.9041 21.27C35.2741 21.27 39.0841 17.76 39.0841 12.84C39.0841 7.95 35.2741 4.47 29.9041 4.47C24.5941 4.47 20.7241 7.95 20.7241 12.84C20.7241 17.76 24.5941 21.27 29.9041 21.27ZM29.9041 16.74C27.9841 16.74 26.4841 15.33 26.4841 12.84C26.4841 10.38 27.9841 9 29.9041 9C31.8541 9 33.3241 10.38 33.3241 12.84C33.3241 15.33 31.8541 16.74 29.9041 16.74ZM47.1545 6.69V4.74H41.7245V21H47.4245V13.53C47.4245 10.68 49.0145 9.51 51.3245 9.51C51.7445 9.51 52.1045 9.54 52.6145 9.6V4.47C50.2145 4.47 48.3245 5.22 47.1545 6.69Z" fill="black"/>
<path d="M61.9553 4.47C59.4053 4.47 56.6453 5.13 54.7853 6.36L56.7053 10.23C57.8153 9.36 59.5553 8.82 61.1153 8.82C63.3653 8.82 64.4753 9.75 64.5653 11.4H61.3253C56.2853 11.4 54.0953 13.26 54.0953 16.26C54.0953 19.08 56.2553 21.27 60.1553 21.27C62.5253 21.27 64.1453 20.46 64.9553 18.9V21H70.2653V11.97C70.2653 6.81 67.2353 4.47 61.9553 4.47ZM61.7453 17.67C60.3953 17.67 59.6153 16.98 59.6153 16.02C59.6153 15.03 60.2753 14.37 62.1053 14.37H64.5653V15.78C64.1153 17.07 63.0053 17.67 61.7453 17.67ZM84.4532 4.47C82.4132 4.47 80.5832 5.16 79.2932 6.51V4.74H73.8632V21H79.5632V13.14C79.5632 10.44 80.9732 9.3 82.8032 9.3C84.4532 9.3 85.4732 10.29 85.4732 12.63V21H91.1732V11.7C91.1732 6.66 88.2632 4.47 84.4532 4.47ZM97.1519 21.27C99.1019 21.27 100.572 19.86 100.572 17.88C100.572 15.84 99.1019 14.52 97.1519 14.52C95.2319 14.52 93.7319 15.84 93.7319 17.88C93.7319 19.86 95.2319 21.27 97.1519 21.27Z" fill="#008FE0"/>
</svg>
